<?xml version="1.0" standalone="no"?>
<svg xmlns="http://www.w3.org/2000/svg" version="1.0"
 width="1024.000000pt" height="1024.000000pt" viewBox="0 0 1024.000000 1024.000000"
 preserveAspectRatio="xMidYMid meet">
<metadata>
Rwanda. Redrawn for CurioZoo from Natural Earth 1:50m admin-0 countries,
public domain, because the upstream mapsicon file for rw contains the
outline of Saudi Arabia. Web Mercator, to match the proportions of the
other outlines in this set.
</metadata>
<g fill="currentColor" stroke="none">
<path d="M376.3 255.6 L391.6 255.2 L492.5 231.1 L502.5 238.6 L518.8 285.5 L527.4 292.3 L541.5 293.9 L569.7 283.2 L621.6 246.6 L644.3 224.3 L670.9 193.1 L705.0 157.8 L724.0 127.1 L742.6 109.1 L766.9 103.7 L793.9 105.0 L812.6 105.6 L797.2 113.0 L794.0 135.5 L811.7 171.5 L869.6 246.0 L906.5 259.7 L930.5 288.7 L954.1 337.5 L961.1 398.6 L951.4 472.1 L957.2 526.7 L978.4 562.5 L984.0 609.0 L973.9 666.1 L961.6 700.3 L947.1 711.6 L930.7 715.8 L908.4 712.0 L881.2 716.8 L851.6 727.6 L833.0 729.1 L821.4 727.0 L799.6 717.9 L765.1 688.4 L700.9 704.7 L683.5 704.3 L659.9 718.3 L640.7 735.6 L629.0 736.8 L617.1 734.5 L561.7 699.6 L541.5 700.8 L533.2 798.6 L523.9 852.9 L512.5 877.2 L472.9 900.6 L433.0 913.8 L411.1 912.9 L323.4 920.2 L289.0 920.3 L270.1 912.3 L245.5 856.9 L198.9 832.2 L154.3 820.7 L136.1 823.9 L120.0 852.9 L113.3 879.0 L70.0 861.1 L57.0 839.1 L55.8 801.9 L40.0 750.9 L48.8 729.2 L65.8 715.2 L101.7 688.3 L156.3 651.0 L168.1 633.2 L175.8 603.6 L172.3 534.7 L167.1 476.5 L173.6 455.8 L198.5 410.9 L232.0 364.9 L271.0 316.2 L294.5 311.5 L325.4 293.1 L358.0 265.8 L376.3 255.6 Z"/>
</g>
</svg>
